# xmcd CD database file
#
# Track frame offsets:
#	150
#	20161
#	30156
#	43341
#	59890
#	79442
#	98659
#	114163
#	132028
#	146557
#	161677
#	179403
#	193779
#	210181
#	227572
#	239162
#
# Disc length: 3409 seconds
#
# Revision: 1
# Processed by: cddbd v1.5.2PL0 Copyright (c) Steve Scherf et al.
# Submitted via: CDex 1.70beta2
#
DISCID=e00d4f10
DTITLE=Depeche Mode - Live Hannover 25.03.1982
DYEAR=1982
DGENRE=New Wave
TTITLE0=Shout
TTITLE1=Sometimes I Wish I Was Dead
TTITLE2=Boys Say Go
TTITLE3=Puppets
TTITLE4=See You
TTITLE5=Big Muff
TTITLE6=Now This Is Fun
TTITLE7=Ice Machine
TTITLE8=Tora! Tora! Tora!
TTITLE9=The Meaning Of Love
TTITLE10=Just Can't Get Enough
TTITLE11=What's Your Name
TTITLE12=Photographic
TTITLE13=Dreaming Of Me
TTITLE14=I Like It
TTITLE15=Television Set
EXTD=YEAR: 1982
EXTT0=
EXTT1=
EXTT2=
EXTT3=
EXTT4=
EXTT5=
EXTT6=
EXTT7=
EXTT8=
EXTT9=
EXTT10=
EXTT11=
EXTT12=
EXTT13=
EXTT14=
EXTT15=
PLAYORDER=
